<svg width="14" height="14" viewBox="0 0 14 14" fill="none" xmlns="http://www.w3.org/2000/svg">
<path fill-rule="evenodd" clip-rule="evenodd" d="M6.58768 1.58785C6.69708 1.47845 6.84545 1.41699 7.00016 1.41699C7.73338 1.41699 8.45941 1.56141 9.13681 1.842C9.81421 2.12259 10.4297 2.53385 10.9482 3.05231C11.4666 3.57077 11.8779 4.18627 12.1585 4.86368C12.4391 5.54108 12.5835 6.26711 12.5835 7.00033C12.5835 7.32249 12.3223 7.58366 12.0002 7.58366H7.00016C6.678 7.58366 6.41683 7.32249 6.41683 7.00033V2.00033C6.41683 1.84562 6.47829 1.69724 6.58768 1.58785ZM7.5835 2.62235V6.41699H11.3781C11.3276 6.0375 11.2278 5.66537 11.0806 5.31014C10.8587 4.77429 10.5333 4.2874 10.1232 3.87727C9.71309 3.46715 9.2262 3.14182 8.69035 2.91986C8.33512 2.77272 7.96298 2.67291 7.5835 2.62235ZM5.53481 2.18202C5.66366 2.47729 5.52875 2.82112 5.23347 2.94997C4.57224 3.23852 3.99177 3.68465 3.54279 4.24937C3.09381 4.81408 2.79001 5.48018 2.65793 6.18943C2.52586 6.89869 2.56954 7.62949 2.78515 8.31796C3.00076 9.00644 3.38175 9.63161 3.89479 10.1388C4.40783 10.646 5.03731 11.0199 5.7282 11.2276C6.41909 11.4353 7.15035 11.4707 7.85805 11.3305C8.56574 11.1903 9.22833 10.8789 9.78788 10.4235C10.3474 9.96815 10.7869 9.38262 11.0679 8.71814C11.1934 8.42141 11.5356 8.28258 11.8324 8.40805C12.1291 8.53353 12.2679 8.87579 12.1424 9.17252C11.7872 10.0125 11.2317 10.7527 10.5243 11.3284C9.81696 11.9041 8.97935 12.2977 8.08471 12.4749C7.19008 12.6521 6.26565 12.6075 5.39227 12.3449C4.51888 12.0822 3.72312 11.6097 3.07455 10.9685C2.42599 10.3273 1.94437 9.53697 1.67181 8.66664C1.39924 7.79631 1.34402 6.87245 1.51098 5.97585C1.67795 5.07925 2.062 4.2372 2.62958 3.52331C3.19715 2.80943 3.93096 2.24545 4.76685 1.88068C5.06213 1.75183 5.40595 1.88674 5.53481 2.18202Z" fill="#109CF1"/>
</svg>
