<svg width="12" height="14" viewBox="0 0 12 14" fill="none" xmlns="http://www.w3.org/2000/svg">
<path fill-rule="evenodd" clip-rule="evenodd" d="M1.99999 3.66634C2.36818 3.66634 2.66666 3.96482 2.66666 4.33301V11.6663C2.66666 12.0345 2.96513 12.333 3.33332 12.333H8.66666C9.03485 12.333 9.33332 12.0345 9.33332 11.6663V4.33301C9.33332 3.96482 9.6318 3.66634 9.99999 3.66634C10.3682 3.66634 10.6667 3.96482 10.6667 4.33301V11.6663C10.6667 12.7709 9.77122 13.6663 8.66666 13.6663H3.33332C2.22875 13.6663 1.33332 12.7709 1.33332 11.6663V4.33301C1.33332 3.96482 1.6318 3.66634 1.99999 3.66634Z" fill="#90A0B7"/>
<path fill-rule="evenodd" clip-rule="evenodd" d="M4.66666 4.33301C5.03485 4.33301 5.33332 4.63148 5.33332 4.99967V10.333C5.33332 10.7012 5.03485 10.9997 4.66666 10.9997C4.29847 10.9997 3.99999 10.7012 3.99999 10.333V4.99967C3.99999 4.63148 4.29847 4.33301 4.66666 4.33301Z" fill="#90A0B7"/>
<path fill-rule="evenodd" clip-rule="evenodd" d="M7.33332 4.33301C7.70151 4.33301 7.99999 4.63148 7.99999 4.99967V10.333C7.99999 10.7012 7.70151 10.9997 7.33332 10.9997C6.96513 10.9997 6.66666 10.7012 6.66666 10.333V4.99967C6.66666 4.63148 6.96513 4.33301 7.33332 4.33301Z" fill="#90A0B7"/>
<path d="M0.666656 2.33301C0.666656 1.96482 0.965133 1.66634 1.33332 1.66634H10.6667C11.0348 1.66634 11.3333 1.96482 11.3333 2.33301C11.3333 2.7012 11.0348 2.99967 10.6667 2.99967H1.33332C0.965133 2.99967 0.666656 2.7012 0.666656 2.33301Z" fill="#90A0B7"/>
<path d="M3.33332 0.999674C3.33332 0.631485 3.6318 0.333008 3.99999 0.333008H7.99999C8.36818 0.333008 8.66666 0.631485 8.66666 0.999674V1.66634H3.33332V0.999674Z" fill="#90A0B7"/>
</svg>
