<svg width="16" height="16" viewBox="0 0 16 16" fill="none" xmlns="http://www.w3.org/2000/svg">
<path d="M7.99999 5.33366C7.26361 5.33366 6.66666 4.7367 6.66666 4.00033C6.66666 3.26395 7.26361 2.66699 7.99999 2.66699C8.73637 2.66699 9.33332 3.26395 9.33332 4.00033C9.33332 4.73671 8.73637 5.33366 7.99999 5.33366Z" fill="#90A0B7"/>
<path d="M7.99999 9.33366C7.26361 9.33366 6.66666 8.7367 6.66666 8.00033C6.66666 7.26395 7.26361 6.66699 7.99999 6.66699C8.73637 6.66699 9.33332 7.26395 9.33332 8.00033C9.33332 8.7367 8.73637 9.33366 7.99999 9.33366Z" fill="#90A0B7"/>
<path d="M7.99999 13.3337C7.26361 13.3337 6.66666 12.7367 6.66666 12.0003C6.66666 11.2639 7.26361 10.667 7.99999 10.667C8.73637 10.667 9.33332 11.2639 9.33332 12.0003C9.33332 12.7367 8.73637 13.3337 7.99999 13.3337Z" fill="#90A0B7"/>
</svg>
