<svg width="16" height="16" viewBox="0 0 16 16" fill="none" xmlns="http://www.w3.org/2000/svg">
<path fill-rule="evenodd" clip-rule="evenodd" d="M13.8048 4.19494C14.0651 4.45529 14.0651 4.8774 13.8048 5.13775L5.13808 13.8044C5.01306 13.9294 4.84349 13.9997 4.66668 13.9997L2.00001 13.9997C1.8232 13.9997 1.65363 13.9294 1.52861 13.8044C1.40358 13.6794 1.33334 13.5098 1.33334 13.333L1.33335 10.6663C1.33335 10.4895 1.40358 10.32 1.52861 10.1949L10.1953 1.52827C10.4556 1.26792 10.8777 1.26792 11.1381 1.52827C11.3984 1.78862 11.3984 2.21073 11.1381 2.47108L2.66668 10.9425L2.66668 12.6663L4.39054 12.6663L12.8619 4.19494C13.1223 3.93459 13.5444 3.93459 13.8048 4.19494Z" fill="#90A0B7"/>
<path fill-rule="evenodd" clip-rule="evenodd" d="M10.1953 1.52827C10.4556 1.26792 10.8777 1.26792 11.1381 1.52827L13.8048 4.19494C14.0651 4.45529 14.0651 4.8774 13.8048 5.13775C13.5444 5.3981 13.1223 5.3981 12.8619 5.13775L10.1953 2.47108C9.93493 2.21073 9.93493 1.78862 10.1953 1.52827Z" fill="#90A0B7"/>
<path fill-rule="evenodd" clip-rule="evenodd" d="M10.8619 7.13775L8.19528 4.47108L9.13808 3.52827L11.8048 6.19494L10.8619 7.13775Z" fill="#90A0B7"/>
</svg>
