<svg width="24" height="24" viewBox="0 0 24 24" fill="none" xmlns="http://www.w3.org/2000/svg">
<path d="M12.3037 2.02161C12.1735 2.0169 12.0406 2.0272 11.9072 2.05384L4.30856 3.57337C3.26139 3.7831 2.49997 4.71163 2.49997 5.77942V18.2208C2.49997 19.2883 3.26148 20.2175 4.30856 20.4269L11.9072 21.9464C12.8794 22.1407 13.7783 21.4456 13.9375 20.5001H18.75C20.2599 20.5001 21.5 19.26 21.5 17.7501V6.75013C21.5 5.24024 20.2599 4.00013 18.75 4.00013H14V3.76966C14 2.81713 13.215 2.05456 12.3037 2.02161ZM12.2011 3.52454C12.3708 3.49067 12.5 3.59626 12.5 3.76966V20.2306C12.5 20.404 12.3706 20.5097 12.2011 20.4757C12.2011 20.4754 12.2011 20.4751 12.2011 20.4747L4.60349 18.9552C4.60316 18.9552 4.60283 18.9552 4.60251 18.9552C4.24707 18.8843 3.99997 18.583 3.99997 18.2208V5.77942C3.99997 5.41722 4.24766 5.11534 4.60349 5.04407L12.2011 3.52454ZM14 5.50013H18.75C19.4491 5.50013 20 6.05101 20 6.75013V17.7501C20 18.4492 19.4491 19.0001 18.75 19.0001H14V5.50013ZM15.75 7.50013C15.6506 7.49872 15.5519 7.51708 15.4597 7.55414C15.3675 7.5912 15.2835 7.64622 15.2127 7.71601C15.142 7.78579 15.0858 7.86894 15.0474 7.96064C15.009 8.05233 14.9893 8.15073 14.9893 8.25013C14.9893 8.34952 15.009 8.44792 15.0474 8.53962C15.0858 8.63131 15.142 8.71446 15.2127 8.78425C15.2835 8.85403 15.3675 8.90905 15.4597 8.94611C15.5519 8.98317 15.6506 9.00153 15.75 9.00013H17.75C17.8494 9.00153 17.948 8.98317 18.0403 8.94611C18.1325 8.90905 18.2164 8.85403 18.2872 8.78425C18.358 8.71446 18.4142 8.63131 18.4525 8.53962C18.4909 8.44792 18.5107 8.34952 18.5107 8.25013C18.5107 8.15073 18.4909 8.05233 18.4525 7.96064C18.4142 7.86894 18.358 7.78579 18.2872 7.71601C18.2164 7.64622 18.1325 7.5912 18.0403 7.55414C17.948 7.51708 17.8494 7.49872 17.75 7.50013H15.75ZM6.49899 8.57923C6.35457 8.57538 6.20702 8.61335 6.07614 8.69642C5.72714 8.91892 5.62465 9.38207 5.84665 9.73157L7.34079 12.0792L5.84665 14.4269C5.62465 14.7764 5.72714 15.2395 6.07614 15.462C6.20114 15.541 6.34049 15.5792 6.47849 15.5792C6.72599 15.5792 6.96927 15.457 7.11227 15.2325L8.22946 13.4767L9.34665 15.2316C9.49015 15.4561 9.73294 15.5792 9.98044 15.5792C10.1184 15.5792 10.2568 15.542 10.3818 15.462C10.7308 15.2395 10.8343 14.7754 10.6123 14.4259L9.11911 12.0792L10.6123 9.73255C10.8343 9.38305 10.7308 8.91892 10.3818 8.69642C10.0333 8.47442 9.56965 8.57688 9.34665 8.92688L8.22946 10.6818L7.11227 8.92591C6.97321 8.70716 6.73969 8.58565 6.49899 8.57923ZM15.75 11.5001C15.6506 11.4987 15.5519 11.5171 15.4597 11.5541C15.3675 11.5912 15.2835 11.6462 15.2127 11.716C15.142 11.7858 15.0858 11.8689 15.0474 11.9606C15.009 12.0523 14.9893 12.1507 14.9893 12.2501C14.9893 12.3495 15.009 12.4479 15.0474 12.5396C15.0858 12.6313 15.142 12.7145 15.2127 12.7842C15.2835 12.854 15.3675 12.909 15.4597 12.9461C15.5519 12.9832 15.6506 13.0015 15.75 13.0001H17.75C17.8494 13.0015 17.948 12.9832 18.0403 12.9461C18.1325 12.909 18.2164 12.854 18.2872 12.7842C18.358 12.7145 18.4142 12.6313 18.4525 12.5396C18.4909 12.4479 18.5107 12.3495 18.5107 12.2501C18.5107 12.1507 18.4909 12.0523 18.4525 11.9606C18.4142 11.8689 18.358 11.7858 18.2872 11.716C18.2164 11.6462 18.1325 11.5912 18.0403 11.5541C17.948 11.5171 17.8494 11.4987 17.75 11.5001H15.75ZM15.75 15.5001C15.6506 15.4987 15.5519 15.5171 15.4597 15.5541C15.3675 15.5912 15.2835 15.6462 15.2127 15.716C15.142 15.7858 15.0858 15.8689 15.0474 15.9606C15.009 16.0523 14.9893 16.1507 14.9893 16.2501C14.9893 16.3495 15.009 16.4479 15.0474 16.5396C15.0858 16.6313 15.142 16.7145 15.2127 16.7842C15.2835 16.854 15.3675 16.909 15.4597 16.9461C15.5519 16.9832 15.6506 17.0015 15.75 17.0001H17.75C17.8494 17.0015 17.948 16.9832 18.0403 16.9461C18.1325 16.909 18.2164 16.854 18.2872 16.7842C18.358 16.7145 18.4142 16.6313 18.4525 16.5396C18.4909 16.4479 18.5107 16.3495 18.5107 16.2501C18.5107 16.1507 18.4909 16.0523 18.4525 15.9606C18.4142 15.8689 18.358 15.7858 18.2872 15.716C18.2164 15.6462 18.1325 15.5912 18.0403 15.5541C17.948 15.5171 17.8494 15.4987 17.75 15.5001H15.75Z" fill="#90A0B7"/>
</svg>
