<svg width="24" height="24" viewBox="0 0 24 24" fill="none" xmlns="http://www.w3.org/2000/svg">
<path fill-rule="evenodd" clip-rule="evenodd" d="M4.043 11.9886C4.61194 13.6329 6.8334 17 12 17C17.2424 17 19.4283 13.8356 19.9639 12.0101C19.4181 10.2828 17.2103 7 12 7C6.81128 7 4.60021 10.2556 4.043 11.9886ZM2.02986 11.7575C2.61875 9.4019 5.45482 5 12 5C18.5452 5 21.3813 9.4019 21.9701 11.7575L22.0284 11.9907L21.9744 12.2249C21.3836 14.7851 18.5247 19 12 19C5.42036 19 2.62052 14.4092 2.03524 12.2631L1.96648 12.011L2.02986 11.7575Z" fill="#90A0B7"/>
<path fill-rule="evenodd" clip-rule="evenodd" d="M12 11C11.4477 11 11 11.4477 11 12C11 12.5523 11.4477 13 12 13C12.5523 13 13 12.5523 13 12C13 11.4477 12.5523 11 12 11ZM9 12C9 10.3431 10.3431 9 12 9C13.6569 9 15 10.3431 15 12C15 13.6569 13.6569 15 12 15C10.3431 15 9 13.6569 9 12Z" fill="#90A0B7"/>
</svg>
