<svg width="10" height="12" viewBox="0 0 10 12" fill="none" xmlns="http://www.w3.org/2000/svg">
<path fill-rule="evenodd" clip-rule="evenodd" d="M0.916626 1.91667C0.916626 1.27233 1.43896 0.75 2.08329 0.75H7.91663C8.56096 0.75 9.08329 1.27233 9.08329 1.91667V10.6667C9.08329 10.893 8.95236 11.0989 8.74738 11.1949C8.54241 11.2909 8.3004 11.2597 8.12652 11.1148L4.99996 8.50933L1.8734 11.1148C1.69952 11.2597 1.45751 11.2909 1.25254 11.1949C1.04756 11.0989 0.916626 10.893 0.916626 10.6667V1.91667ZM7.91663 1.91667H2.08329V9.42123L4.62652 7.30187C4.84285 7.1216 5.15707 7.1216 5.3734 7.30187L7.91663 9.42123V1.91667Z" fill="#109CF1"/>
</svg>
