<svg width="96" height="23" viewBox="0 0 96 23" fill="none" xmlns="http://www.w3.org/2000/svg">
<path fill-rule="evenodd" clip-rule="evenodd" d="M13.4247 7.69016L1.58994 16.5685C3.48317 20.0198 7.2461 22.3715 11.5836 22.3715C17.821 22.3715 22.8774 17.5042 22.8774 11.5008C22.8774 11.3501 22.874 11.2027 22.8673 11.0537L13.4247 7.69016ZM63.2735 12.9334L60.0112 18.3389V12.9334H58.3767V21.1311H58.3817H60.0112L63.2735 15.7372V21.1311H64.9198V12.9334H64.9114H63.2735ZM71.2227 12.9334L67.9604 18.3389V12.9334H66.3259V21.1311H66.3309H67.9604L71.2227 15.7372V21.1311H72.8707V12.9334H72.8623H71.2227ZM93.5954 10.1958H95.3206V1.99814H93.5954V10.1958ZM90.7463 4.93109H88.3088V1.99814H86.6037V10.2058H90.7463C91.7408 10.2058 92.4279 9.54499 92.4279 8.58776V6.55076C92.4279 5.59353 91.7408 4.93109 90.7463 4.93109ZM90.7211 8.26648C90.7211 8.51655 90.58 8.65401 90.3196 8.65401H88.3088V6.4812H90.3196C90.58 6.4812 90.7211 6.617 90.7211 6.86873V8.26648ZM55.1832 12.8224H52.4836C51.4891 12.8224 50.8021 13.4832 50.8021 14.4404V19.5015C50.8021 20.4587 51.4891 21.1195 52.4836 21.1195H55.1832C56.1777 21.1195 56.8648 20.4587 56.8648 19.5015V18.1799H55.1597V19.1835C55.1597 19.4336 55.0169 19.571 54.7565 19.571H52.9086C52.6483 19.571 52.5072 19.4352 52.5072 19.1835V14.7617C52.5072 14.5116 52.6483 14.3742 52.9086 14.3742H54.7565C55.0169 14.3742 55.1597 14.51 55.1597 14.7617V15.7653H56.8648V14.4437C56.8648 13.4832 56.1777 12.8224 55.1832 12.8224ZM47.6926 12.8224H44.993C43.9986 12.8224 43.3115 13.4832 43.3115 14.4404V19.5015C43.3115 20.4587 43.9986 21.1195 44.993 21.1195H47.6926C48.6871 21.1195 49.3742 20.4587 49.3742 19.5015V18.1799H47.6691V19.1835C47.6691 19.4336 47.5263 19.571 47.2659 19.571H45.4181C45.1577 19.571 45.0166 19.4352 45.0166 19.1835V14.7617C45.0166 14.5116 45.1577 14.3742 45.4181 14.3742H47.2659C47.5263 14.3742 47.6691 14.51 47.6691 14.7617V15.7653H49.3742V14.4437C49.3725 13.4832 48.6854 12.8224 47.6926 12.8224ZM40.1667 12.8224H37.3126C36.3181 12.8224 35.6311 13.4832 35.6311 14.4404V19.5015C35.6311 20.4587 36.3181 21.1195 37.3126 21.1195H40.1667C41.1612 21.1195 41.8483 20.4587 41.8483 19.5015V14.4404C41.8483 13.4832 41.1612 12.8224 40.1667 12.8224ZM40.1432 19.1835C40.1432 19.4336 40.0004 19.571 39.7401 19.571H37.7393C37.4789 19.571 37.3378 19.4352 37.3378 19.1835V14.7617C37.3378 14.51 37.4789 14.3742 37.7393 14.3742H39.7401C40.0004 14.3742 40.1432 14.51 40.1432 14.7617V19.1835ZM32.7786 12.8688H28.421V21.0748H30.1261V18.1799H32.7786C33.7731 18.1799 34.4602 17.5191 34.4602 16.5602V14.4868C34.4602 13.5296 33.7731 12.8688 32.7786 12.8688ZM32.7551 16.2423C32.7551 16.494 32.6123 16.6298 32.3519 16.6298H30.1261V14.4189H32.3519C32.6123 14.4189 32.7551 14.5547 32.7551 14.8064V16.2423ZM67.0197 7.88392C67.1087 6.82402 67.3372 4.09973 67.3859 3.52672H69.6168V10.2058H71.3218V3.52672V3.38098V1.99979H65.8169L65.6791 3.52672H65.6808C65.6304 4.05501 65.4103 6.3719 65.3734 6.92669C65.3213 7.43512 65.2272 8.05119 65.1718 8.4089C65.1432 8.58942 65.0139 8.70866 64.8341 8.70866H64.2294V10.1892C64.2294 10.1892 64.2999 10.1876 64.7501 10.1876C66.4619 10.1876 66.9138 9.03657 67.0197 7.88392ZM79.4323 3.52506H81.6581V10.2041H83.3632V3.52506H85.5891V1.99814H79.4323V3.52506ZM72.7733 10.2041H78.3505V8.65401H74.4783V6.78593H77.6164V5.23581H74.4783V3.54825H78.3505V1.99814H72.7733V10.2041ZM61.6088 10.2505C62.6032 10.2505 63.2903 9.5897 63.2903 8.63248V3.57143C63.2903 2.61421 62.6032 1.95342 61.6088 1.95342H58.7563C57.7618 1.95342 57.0748 2.61421 57.0748 3.57143V8.63248C57.0748 9.5897 57.7618 10.2505 58.7563 10.2505H61.6088ZM58.7782 3.8894C58.7782 3.63933 58.9193 3.50188 59.1796 3.50188H61.1804C61.4408 3.50188 61.5836 3.63933 61.5836 3.8894V8.3112C61.5836 8.56292 61.4408 8.69872 61.1804 8.69872H59.1813C58.921 8.69872 58.7798 8.56127 58.7798 8.3112V3.8894H58.7782ZM52.1829 10.2041H53.888V3.52506H56.1155V1.99814H49.9588V3.52506H52.1846V10.2041H52.1829ZM44.8906 7.30925H47.5431C48.5376 7.30925 49.2247 6.64847 49.2247 5.69124V3.61615C49.2247 2.65892 48.5376 1.99814 47.5431 1.99814H43.1855V10.2058H44.8906V7.30925ZM44.8906 3.54825H47.1164C47.3768 3.54825 47.5196 3.68405 47.5196 3.93578V5.37161C47.5196 5.62334 47.3768 5.75914 47.1164 5.75914H44.8906V3.54825ZM41.682 8.65401H37.8099V6.78593H40.9479V5.23581H37.8099V3.54825H41.682V1.99814H36.1048V10.2041H41.682V8.65401ZM33.6673 6.01087C34.2116 5.70284 34.4132 5.27059 34.4132 4.78039V3.6178C34.4132 2.66058 33.7261 1.99979 32.7316 1.99979H28.421V10.2074H32.8257C33.8202 10.2074 34.5072 9.54665 34.5072 8.58776V7.24301C34.5072 6.75115 34.2586 6.28413 33.6673 6.01087ZM30.1261 3.52506H32.3049C32.5653 3.52506 32.7064 3.66086 32.7064 3.91259V4.893C32.7064 5.21263 32.6123 5.28053 32.3049 5.28053H30.1261V3.52506ZM32.8021 8.28967C32.8021 8.54139 32.6594 8.67719 32.399 8.67719H30.1261V6.73955H32.2579C32.5888 6.73955 32.8021 6.76274 32.8021 7.1039V8.28967ZM13.5557 0.79415L13.0518 7.01281L0.679443 8.6656C1.97463 4.0368 6.36584 0.62854 11.5836 0.62854C12.2555 0.62854 12.9157 0.686504 13.5557 0.79415ZM16.2671 1.60564L13.8279 7.04593L22.0929 7.50964C21.0178 4.88969 18.9162 2.76822 16.2671 1.60564Z" fill="#A40029"/>
</svg>
