<svg width="20" height="20" viewBox="0 0 20 20" fill="none" xmlns="http://www.w3.org/2000/svg">
<path d="M10 6.66634C9.07957 6.66634 8.33337 5.92015 8.33337 4.99967C8.33337 4.0792 9.07957 3.33301 10 3.33301C10.9205 3.33301 11.6667 4.0792 11.6667 4.99967C11.6667 5.92015 10.9205 6.66634 10 6.66634Z" fill="#90A0B7"/>
<path d="M10 11.6663C9.07957 11.6663 8.33337 10.9201 8.33337 9.99967C8.33337 9.0792 9.07957 8.33301 10 8.33301C10.9205 8.33301 11.6667 9.0792 11.6667 9.99967C11.6667 10.9201 10.9205 11.6663 10 11.6663Z" fill="#90A0B7"/>
<path d="M10 16.6663C9.07957 16.6663 8.33337 15.9201 8.33337 14.9997C8.33337 14.0792 9.07957 13.333 10 13.333C10.9205 13.333 11.6667 14.0792 11.6667 14.9997C11.6667 15.9201 10.9205 16.6663 10 16.6663Z" fill="#90A0B7"/>
</svg>
