<svg width="18" height="19" viewBox="0 0 18 19" fill="none" xmlns="http://www.w3.org/2000/svg">
<path fill-rule="evenodd" clip-rule="evenodd" d="M0 15C0 14.4477 0.447715 14 1 14H17C17.5523 14 18 14.4477 18 15C18 15.5523 17.5523 16 17 16H1C0.447715 16 0 15.5523 0 15Z" fill="black"/>
<path fill-rule="evenodd" clip-rule="evenodd" d="M5.81153 5.4593C5.21022 6.29447 5 7.32669 5 8V15H3V8C3 7.00664 3.28978 5.53887 4.18847 4.2907C5.12386 2.99153 6.67408 2 9 2C11.3259 2 12.8761 2.99153 13.8115 4.2907C14.7102 5.53887 15 7.00664 15 8V15H13V8C13 7.32669 12.7898 6.29447 12.1885 5.4593C11.6239 4.67513 10.6741 4 9 4C7.32592 4 6.37614 4.67513 5.81153 5.4593Z" fill="black"/>
<path d="M11 2C11 3.10457 10.1046 4 9 4C7.89543 4 7 3.10457 7 2C7 0.89543 7.89543 0 9 0C10.1046 0 11 0.89543 11 2Z" fill="black"/>
<path d="M9 19C10.1046 19 11 18.1046 11 17H7C7 18.1046 7.89543 19 9 19Z" fill="black"/>
</svg>
