<svg width="12" height="12" viewBox="0 0 12 12" fill="none" xmlns="http://www.w3.org/2000/svg">
<path fill-rule="evenodd" clip-rule="evenodd" d="M2.50008 6.58333C2.50008 6.26117 2.76125 6 3.08342 6H8.91675C9.23891 6 9.50008 6.26117 9.50008 6.58333V10.6667C9.50008 10.9888 9.23891 11.25 8.91675 11.25H3.08342C2.76125 11.25 2.50008 10.9888 2.50008 10.6667V6.58333ZM3.66675 7.16667V10.0833H8.33342V7.16667H3.66675Z" fill="white"/>
<path fill-rule="evenodd" clip-rule="evenodd" d="M0.166748 5.41667C0.166748 4.77233 0.689083 4.25 1.33342 4.25H10.6667C11.3111 4.25 11.8334 4.77233 11.8334 5.41667V7.16667C11.8334 8.45533 10.7887 9.5 9.50008 9.5H8.91675C8.59458 9.5 8.33342 9.23883 8.33342 8.91667C8.33342 8.5945 8.59458 8.33333 8.91675 8.33333H9.50008C10.1444 8.33333 10.6667 7.811 10.6667 7.16667V5.41667H1.33341V7.16667C1.33341 7.811 1.85575 8.33333 2.50008 8.33333H3.08342C3.40558 8.33333 3.66675 8.5945 3.66675 8.91667C3.66675 9.23883 3.40558 9.5 3.08342 9.5H2.50008C1.21142 9.5 0.166748 8.45533 0.166748 7.16667V5.41667Z" fill="white"/>
<path fill-rule="evenodd" clip-rule="evenodd" d="M2.50008 1.33333C2.50008 1.01117 2.76125 0.75 3.08342 0.75H8.91675C9.23892 0.75 9.50008 1.01117 9.50008 1.33333V3.08333C9.50008 3.4055 9.23892 3.66667 8.91675 3.66667C8.59458 3.66667 8.33342 3.4055 8.33342 3.08333V1.91667H3.66675V3.08333C3.66675 3.4055 3.40558 3.66667 3.08342 3.66667C2.76125 3.66667 2.50008 3.4055 2.50008 3.08333V1.33333Z" fill="white"/>
</svg>
