<svg width="14" height="14" viewBox="0 0 14 14" fill="none" xmlns="http://www.w3.org/2000/svg">
<path fill-rule="evenodd" clip-rule="evenodd" d="M1.75008 1.16699C2.07225 1.16699 2.33341 1.42816 2.33341 1.75033V11.667H12.2501C12.5722 11.667 12.8334 11.9282 12.8334 12.2503C12.8334 12.5725 12.5722 12.8337 12.2501 12.8337H1.75008C1.42792 12.8337 1.16675 12.5725 1.16675 12.2503V1.75033C1.16675 1.42816 1.42792 1.16699 1.75008 1.16699Z" fill="white"/>
<path fill-rule="evenodd" clip-rule="evenodd" d="M4.08341 8.16699C4.40558 8.16699 4.66675 8.42816 4.66675 8.75033V9.91699C4.66675 10.2392 4.40558 10.5003 4.08341 10.5003C3.76125 10.5003 3.50008 10.2392 3.50008 9.91699V8.75033C3.50008 8.42816 3.76125 8.16699 4.08341 8.16699Z" fill="white"/>
<path fill-rule="evenodd" clip-rule="evenodd" d="M8.75008 4.08366C9.07225 4.08366 9.33342 4.34483 9.33342 4.66699V9.91699C9.33342 10.2392 9.07225 10.5003 8.75008 10.5003C8.42792 10.5003 8.16675 10.2392 8.16675 9.91699V4.66699C8.16675 4.34483 8.42792 4.08366 8.75008 4.08366Z" fill="white"/>
<path fill-rule="evenodd" clip-rule="evenodd" d="M11.0834 1.16699C11.4056 1.16699 11.6667 1.42816 11.6667 1.75033V9.91699C11.6667 10.2392 11.4056 10.5003 11.0834 10.5003C10.7612 10.5003 10.5001 10.2392 10.5001 9.91699V1.75033C10.5001 1.42816 10.7612 1.16699 11.0834 1.16699Z" fill="white"/>
<path fill-rule="evenodd" clip-rule="evenodd" d="M6.41675 6.41699C6.73891 6.41699 7.00008 6.67816 7.00008 7.00033V9.91699C7.00008 10.2392 6.73891 10.5003 6.41675 10.5003C6.09458 10.5003 5.83342 10.2392 5.83342 9.91699V7.00033C5.83342 6.67816 6.09458 6.41699 6.41675 6.41699Z" fill="white"/>
</svg>
