<svg width="16" height="20" viewBox="0 0 16 20" fill="none" xmlns="http://www.w3.org/2000/svg">
<path fill-rule="evenodd" clip-rule="evenodd" d="M7.21153 2.3343C7.06022 2.54447 7 2.82669 7 3V4H5V3C5 2.50664 5.13978 1.78887 5.58847 1.1657C6.07386 0.491533 6.87408 0 8 0C9.12592 0 9.92614 0.491533 10.4115 1.1657C10.8602 1.78887 11 2.50664 11 3V4H9V3C9 2.82669 8.93978 2.54447 8.78847 2.3343C8.67386 2.17513 8.47408 2 8 2C7.52592 2 7.32614 2.17513 7.21153 2.3343Z" fill="black"/>
<path fill-rule="evenodd" clip-rule="evenodd" d="M4 14C4 13.4477 4.44772 13 5 13H7C7.55228 13 8 13.4477 8 14C8 14.5523 7.55228 15 7 15H5C4.44772 15 4 14.5523 4 14Z" fill="black"/>
<path fill-rule="evenodd" clip-rule="evenodd" d="M4 11C4 10.4477 4.44772 10 5 10H11C11.5523 10 12 10.4477 12 11C12 11.5523 11.5523 12 11 12H5C4.44772 12 4 11.5523 4 11Z" fill="black"/>
<path fill-rule="evenodd" clip-rule="evenodd" d="M4 8C4 7.44772 4.44772 7 5 7H11C11.5523 7 12 7.44772 12 8C12 8.55229 11.5523 9 11 9H5C4.44772 9 4 8.55229 4 8Z" fill="black"/>
<path fill-rule="evenodd" clip-rule="evenodd" d="M0 6C0 4.34315 1.34315 3 3 3H13C14.6569 3 16 4.34315 16 6V17C16 18.6569 14.6569 20 13 20H3C1.34315 20 0 18.6569 0 17V6ZM3 5C2.44772 5 2 5.44772 2 6V17C2 17.5523 2.44772 18 3 18H13C13.5523 18 14 17.5523 14 17V6C14 5.44772 13.5523 5 13 5H3Z" fill="black"/>
</svg>
