<svg width="18" height="14" viewBox="0 0 18 14" fill="none" xmlns="http://www.w3.org/2000/svg">
<path fill-rule="evenodd" clip-rule="evenodd" d="M4 1C4 0.447715 4.44772 0 5 0H17C17.5523 0 18 0.447715 18 1C18 1.55228 17.5523 2 17 2H5C4.44772 2 4 1.55228 4 1Z" fill="black"/>
<path fill-rule="evenodd" clip-rule="evenodd" d="M4 7C4 6.44772 4.44772 6 5 6H17C17.5523 6 18 6.44772 18 7C18 7.55228 17.5523 8 17 8H5C4.44772 8 4 7.55228 4 7Z" fill="black"/>
<path fill-rule="evenodd" clip-rule="evenodd" d="M4 13C4 12.4477 4.44772 12 5 12H17C17.5523 12 18 12.4477 18 13C18 13.5523 17.5523 14 17 14H5C4.44772 14 4 13.5523 4 13Z" fill="black"/>
<path d="M2 1C2 1.55228 1.55228 2 1 2C0.447715 2 0 1.55228 0 1C0 0.447715 0.447715 0 1 0C1.55228 0 2 0.447715 2 1Z" fill="black"/>
<path d="M2 7C2 7.55228 1.55228 8 1 8C0.447715 8 0 7.55228 0 7C0 6.44772 0.447715 6 1 6C1.55228 6 2 6.44772 2 7Z" fill="black"/>
<path d="M2 13C2 13.5523 1.55228 14 1 14C0.447715 14 0 13.5523 0 13C0 12.4477 0.447715 12 1 12C1.55228 12 2 12.4477 2 13Z" fill="black"/>
</svg>
