<svg width="20" height="20" viewBox="0 0 20 20" fill="none" xmlns="http://www.w3.org/2000/svg">
<path d="M12 10C12 11.1046 11.1046 12 10 12C8.89543 12 8 11.1046 8 10C8 8.89543 8.89543 8 10 8C11.1046 8 12 8.89543 12 10Z" fill="black"/>
<path fill-rule="evenodd" clip-rule="evenodd" d="M10 4C6.68629 4 4 6.68629 4 10C4 13.3137 6.68629 16 10 16C13.3137 16 16 13.3137 16 10C16 6.68629 13.3137 4 10 4ZM2 10C2 5.58172 5.58172 2 10 2C14.4183 2 18 5.58172 18 10C18 14.4183 14.4183 18 10 18C5.58172 18 2 14.4183 2 10Z" fill="black"/>
<path d="M2.36058 4.67908C2.07645 4.2813 2.12155 3.7364 2.46721 3.39074L3.39051 2.46744C3.73617 2.12178 4.28107 2.07668 4.67886 2.36081L6.4644 3.6362L3.63597 6.46462L2.36058 4.67908Z" fill="black"/>
<path d="M17.6394 15.321C17.9235 15.7188 17.8785 16.2637 17.5328 16.6093L16.6095 17.5326C16.2638 17.8783 15.7189 17.9234 15.3211 17.6393L13.5356 16.3639L16.364 13.5355L17.6394 15.321Z" fill="black"/>
<path d="M15.3211 2.36065C15.7189 2.07652 16.2638 2.12162 16.6094 2.46728L17.5327 3.39058C17.8784 3.73624 17.9235 4.28114 17.6393 4.67893L16.364 6.46447L13.5355 3.63604L15.3211 2.36065Z" fill="black"/>
<path d="M4.67893 17.6393C4.28114 17.9235 3.73624 17.8784 3.39058 17.5327L2.46728 16.6094C2.12162 16.2638 2.07652 15.7189 2.36065 15.3211L3.63604 13.5355L6.46447 16.364L4.67893 17.6393Z" fill="black"/>
<path d="M19.1644 8.36073C19.6466 8.4411 20 8.85829 20 9.34713V10.6529C20 11.1417 19.6466 11.5589 19.1644 11.6393L17 12V8L19.1644 8.36073Z" fill="black"/>
<path d="M0.835601 11.6393C0.353413 11.5589 -6.41035e-08 11.1417 0 10.6529L1.71228e-07 9.34713C2.35331e-07 8.85829 0.353413 8.4411 0.835601 8.36073L3 8L3 12L0.835601 11.6393Z" fill="black"/>
<path d="M8.36073 0.835601C8.4411 0.353413 8.85829 0 9.34713 0H10.6529C11.1417 0 11.5589 0.353413 11.6393 0.835601L12 3H8L8.36073 0.835601Z" fill="black"/>
<path d="M11.6393 19.1644C11.5589 19.6466 11.1417 20 10.6529 20H9.34713C8.85829 20 8.4411 19.6466 8.36073 19.1644L8 17H12L11.6393 19.1644Z" fill="black"/>
</svg>
