<svg width="24" height="24" viewBox="0 0 24 24" fill="none" xmlns="http://www.w3.org/2000/svg">
<path fill-rule="evenodd" clip-rule="evenodd" d="M12 4C7.6 4 4 7.6 4 12C4 16.4 7.6 20 12 20C16.4 20 20 16.4 20 12C20 7.6 16.4 4 12 4ZM2 12C2 6.5 6.5 2 12 2C17.5 2 22 6.5 22 12C22 17.5 17.5 22 12 22C6.5 22 2 17.5 2 12Z" fill="black"/>
<path fill-rule="evenodd" clip-rule="evenodd" d="M12 6.3C12.6 6.3 13 6.7 13 7.3V16.7C13 17.3 12.6 17.7 12 17.7C11.4 17.7 11 17.3 11 16.7V7.3C11 6.7 11.4 6.3 12 6.3Z" fill="black"/>
<path fill-rule="evenodd" clip-rule="evenodd" d="M17.7 12C17.7 12.6 17.3 13 16.7 13H7.30005C6.70005 13 6.30005 12.6 6.30005 12C6.30005 11.4 6.70005 11 7.30005 11H16.7C17.3 11 17.7 11.4 17.7 12Z" fill="black"/>
</svg>
