<svg width="17" height="16" viewBox="0 0 17 16" fill="none" xmlns="http://www.w3.org/2000/svg">
<path fill-rule="evenodd" clip-rule="evenodd" d="M16.3047 3.52827C16.5651 3.78862 16.5651 4.21073 16.3047 4.47108L9.9714 10.8044C9.71106 11.0648 9.28895 11.0648 9.0286 10.8044L6.16667 7.94248L1.63807 12.4711C1.37772 12.7314 0.955612 12.7314 0.695262 12.4711C0.434913 12.2107 0.434913 11.7886 0.695262 11.5283L5.69526 6.52827C5.95561 6.26792 6.37772 6.26792 6.63807 6.52827L9.5 9.3902L15.3619 3.52827C15.6223 3.26792 16.0444 3.26792 16.3047 3.52827Z" fill="white"/>
<path fill-rule="evenodd" clip-rule="evenodd" d="M11.1667 3.99967C11.1667 3.63148 11.4651 3.33301 11.8333 3.33301H15.8333C16.2015 3.33301 16.5 3.63148 16.5 3.99967V7.99967C16.5 8.36786 16.2015 8.66634 15.8333 8.66634C15.4651 8.66634 15.1667 8.36786 15.1667 7.99967V4.66634H11.8333C11.4651 4.66634 11.1667 4.36786 11.1667 3.99967Z" fill="white"/>
</svg>
