<svg width="60" height="60" viewBox="0 0 60 60" fill="none" xmlns="http://www.w3.org/2000/svg">
<path fill-rule="evenodd" clip-rule="evenodd" d="M30 17.5C25.1069 17.5 21.0398 20.4924 19.5837 24.5183C19.2651 25.3994 18.4805 26.0284 17.5511 26.1477C13.1916 26.7074 10 30.2251 10 34.2857C10 38.7088 13.8012 42.5 18.75 42.5C20.1307 42.5 21.25 43.6193 21.25 45C21.25 46.3807 20.1307 47.5 18.75 47.5C11.2724 47.5 5 41.6973 5 34.2857C5 27.9993 9.52285 22.8618 15.4525 21.4549C17.9991 16.1273 23.5941 12.5 30 12.5C37.9359 12.5 44.6788 18.1004 45.8276 25.586C50.9914 26.6141 55 30.9942 55 36.4286C55 42.6567 49.7349 47.5 43.5 47.5C42.1193 47.5 41 46.3807 41 45C41 43.6193 42.1193 42.5 43.5 42.5C47.2062 42.5 50 39.6682 50 36.4286C50 33.189 47.2062 30.3571 43.5 30.3571C42.1193 30.3571 41 29.2379 41 27.8571C41 22.2506 36.1915 17.5 30 17.5Z" fill="#90A0B7"/>
<path fill-rule="evenodd" clip-rule="evenodd" d="M30 47.5C28.6193 47.5 27.5 46.3807 27.5 45V30C27.5 28.6193 28.6193 27.5 30 27.5C31.3807 27.5 32.5 28.6193 32.5 30V45C32.5 46.3807 31.3807 47.5 30 47.5Z" fill="#90A0B7"/>
<path fill-rule="evenodd" clip-rule="evenodd" d="M23.2322 36.7678C22.2559 35.7915 22.2559 34.2085 23.2322 33.2322L28.2322 28.2322C29.2085 27.2559 30.7915 27.2559 31.7678 28.2322C32.7441 29.2085 32.7441 30.7915 31.7678 31.7678L26.7678 36.7678C25.7915 37.7441 24.2085 37.7441 23.2322 36.7678Z" fill="#90A0B7"/>
<path fill-rule="evenodd" clip-rule="evenodd" d="M28.2322 28.2322C29.2085 27.2559 30.7915 27.2559 31.7678 28.2322L36.7678 33.2322C37.7441 34.2085 37.7441 35.7915 36.7678 36.7678C35.7915 37.7441 34.2085 37.7441 33.2322 36.7678L28.2322 31.7678C27.2559 30.7915 27.2559 29.2085 28.2322 28.2322Z" fill="#90A0B7"/>
</svg>
