<svg width="12" height="12" viewBox="0 0 12 12" fill="none" xmlns="http://www.w3.org/2000/svg">
<path fill-rule="evenodd" clip-rule="evenodd" d="M6.0001 1.2C5.33736 1.2 4.8001 1.73726 4.8001 2.4C4.8001 3.06274 5.33736 3.6 6.0001 3.6C6.66284 3.6 7.2001 3.06274 7.2001 2.4C7.2001 1.73726 6.66284 1.2 6.0001 1.2ZM3.6001 2.4C3.6001 1.07452 4.67461 0 6.0001 0C7.32558 0 8.4001 1.07452 8.4001 2.4C8.4001 3.72548 7.32558 4.8 6.0001 4.8C4.67461 4.8 3.6001 3.72548 3.6001 2.4Z" fill="white"/>
<path fill-rule="evenodd" clip-rule="evenodd" d="M1.84585 9.00445C2.10996 9.58154 2.6503 10.0168 3.38087 10.3212C4.18943 10.6581 5.15671 10.8 6.0001 10.8C6.84349 10.8 7.81077 10.6581 8.61933 10.3212C9.34989 10.0168 9.89024 9.58154 10.1543 9.00445C9.88187 8.45407 9.24747 8.00722 8.40971 7.68501C7.50491 7.33701 6.52804 7.2 6.0001 7.2C5.47215 7.2 4.49529 7.33701 3.59049 7.68501C2.75273 8.00722 2.11833 8.45408 1.84585 9.00445ZM3.15971 6.56499C4.20491 6.16299 5.32804 6 6.0001 6C6.67215 6 7.79529 6.16299 8.84049 6.56499C9.86061 6.95735 10.9813 7.64615 11.3693 8.81026C11.4104 8.93342 11.4104 9.06658 11.3693 9.18974C10.9942 10.3151 10.0705 11.0165 9.08087 11.4288C8.08943 11.8419 6.95671 12 6.0001 12C5.04349 12 3.91077 11.8419 2.91933 11.4288C1.92969 11.0165 1.006 10.3151 0.630888 9.18974C0.589834 9.06658 0.589834 8.93342 0.630888 8.81026C1.01893 7.64615 2.13959 6.95735 3.15971 6.56499Z" fill="white"/>
</svg>
