<svg width="24" height="24" viewBox="0 0 24 24" fill="none" xmlns="http://www.w3.org/2000/svg">
<path fill-rule="evenodd" clip-rule="evenodd" d="M11.2932 2.7216C11.4808 2.53407 11.7351 2.42871 12.0003 2.42871C13.2573 2.42871 14.5019 2.67628 15.6632 3.15729C16.8244 3.6383 17.8796 4.34333 18.7684 5.23212C19.6572 6.12091 20.3622 7.17605 20.8432 8.33731C21.3242 9.49857 21.5718 10.7432 21.5718 12.0001C21.5718 12.5524 21.1241 13.0001 20.5718 13.0001H12.0003C11.4481 13.0001 11.0003 12.5524 11.0003 12.0001V3.42871C11.0003 3.16349 11.1057 2.90914 11.2932 2.7216ZM13.0003 4.49504V11.0001H19.5054C19.4188 10.3496 19.2477 9.71164 18.9954 9.10268C18.6149 8.18407 18.0572 7.3494 17.3542 6.64633C16.6511 5.94326 15.8164 5.38555 14.8978 5.00505C14.2888 4.75281 13.6509 4.58172 13.0003 4.49504ZM9.48831 3.74018C9.7092 4.24637 9.47792 4.83578 8.97174 5.05667C7.8382 5.55133 6.8431 6.31613 6.07343 7.28421C5.30375 8.25229 4.78294 9.39418 4.55653 10.61C4.33012 11.8259 4.405 13.0787 4.77462 14.2589C5.14424 15.4392 5.79735 16.5109 6.67685 17.3804C7.55635 18.2499 8.63547 18.8908 9.81985 19.2469C11.0042 19.603 12.2578 19.6636 13.471 19.4233C14.6842 19.183 15.8201 18.6492 16.7793 17.8685C17.7385 17.0878 18.4919 16.0841 18.9736 14.945C19.1887 14.4363 19.7754 14.1983 20.2841 14.4134C20.7928 14.6285 21.0308 15.2152 20.8157 15.7239C20.2068 17.1639 19.2544 18.4328 18.0418 19.4197C16.8291 20.4066 15.3932 21.0814 13.8596 21.3852C12.3259 21.6889 10.7412 21.6124 9.24396 21.1622C7.74672 20.712 6.38256 19.9019 5.27074 18.8027C4.15891 17.7035 3.33328 16.3487 2.86602 14.8567C2.39877 13.3647 2.30411 11.7809 2.59033 10.2439C2.87655 8.70687 3.53493 7.26335 4.50792 6.03955C5.4809 4.81575 6.73886 3.84892 8.17182 3.22361C8.678 3.00272 9.26742 3.23399 9.48831 3.74018Z" fill="#885AF8"/>
</svg>
