<svg width="24" height="24" viewBox="0 0 24 24" fill="none" xmlns="http://www.w3.org/2000/svg">
<path fill-rule="evenodd" clip-rule="evenodd" d="M16 5C15.4477 5 15 5.44772 15 6C15 6.55228 15.4477 7 16 7C16.5523 7 17 6.55228 17 6C17 5.44772 16.5523 5 16 5ZM13 6C13 4.34315 14.3431 3 16 3C17.6569 3 19 4.34315 19 6C19 7.65685 17.6569 9 16 9C14.3431 9 13 7.65685 13 6Z" fill="#90A0B7"/>
<path fill-rule="evenodd" clip-rule="evenodd" d="M8 11C7.44772 11 7 11.4477 7 12C7 12.5523 7.44772 13 8 13C8.55228 13 9 12.5523 9 12C9 11.4477 8.55228 11 8 11ZM5 12C5 10.3431 6.34315 9 8 9C9.65685 9 11 10.3431 11 12C11 13.6569 9.65685 15 8 15C6.34315 15 5 13.6569 5 12Z" fill="#90A0B7"/>
<path fill-rule="evenodd" clip-rule="evenodd" d="M16 17C15.4477 17 15 17.4477 15 18C15 18.5523 15.4477 19 16 19C16.5523 19 17 18.5523 17 18C17 17.4477 16.5523 17 16 17ZM13 18C13 16.3431 14.3431 15 16 15C17.6569 15 19 16.3431 19 18C19 19.6569 17.6569 21 16 21C14.3431 21 13 19.6569 13 18Z" fill="#90A0B7"/>
<path fill-rule="evenodd" clip-rule="evenodd" d="M3 6C3 5.44772 3.44772 5 4 5H14C14.5523 5 15 5.44772 15 6C15 6.55228 14.5523 7 14 7H4C3.44772 7 3 6.55228 3 6Z" fill="#90A0B7"/>
<path fill-rule="evenodd" clip-rule="evenodd" d="M9 12C9 11.4477 9.44772 11 10 11H20C20.5523 11 21 11.4477 21 12C21 12.5523 20.5523 13 20 13H10C9.44772 13 9 12.5523 9 12Z" fill="#90A0B7"/>
<path fill-rule="evenodd" clip-rule="evenodd" d="M3 12C3 11.4477 3.44772 11 4 11H6C6.55228 11 7 11.4477 7 12C7 12.5523 6.55228 13 6 13H4C3.44772 13 3 12.5523 3 12Z" fill="#90A0B7"/>
<path fill-rule="evenodd" clip-rule="evenodd" d="M17 6C17 5.44772 17.4477 5 18 5H20C20.5523 5 21 5.44772 21 6C21 6.55228 20.5523 7 20 7H18C17.4477 7 17 6.55228 17 6Z" fill="#90A0B7"/>
<path fill-rule="evenodd" clip-rule="evenodd" d="M17 18C17 17.4477 17.4477 17 18 17H20C20.5523 17 21 17.4477 21 18C21 18.5523 20.5523 19 20 19H18C17.4477 19 17 18.5523 17 18Z" fill="#90A0B7"/>
<path fill-rule="evenodd" clip-rule="evenodd" d="M3 18C3 17.4477 3.44772 17 4 17H14C14.5523 17 15 17.4477 15 18C15 18.5523 14.5523 19 14 19H4C3.44772 19 3 18.5523 3 18Z" fill="#90A0B7"/>
</svg>
