<svg width="17" height="16" viewBox="0 0 17 16" fill="none" xmlns="http://www.w3.org/2000/svg">
<path fill-rule="evenodd" clip-rule="evenodd" d="M8.49998 2.66634C5.56665 2.66634 3.16665 5.06634 3.16665 7.99967C3.16665 10.933 5.56665 13.333 8.49998 13.333C11.4333 13.333 13.8333 10.933 13.8333 7.99967C13.8333 5.06634 11.4333 2.66634 8.49998 2.66634ZM1.83331 7.99967C1.83331 4.33301 4.83331 1.33301 8.49998 1.33301C12.1666 1.33301 15.1666 4.33301 15.1666 7.99967C15.1666 11.6663 12.1666 14.6663 8.49998 14.6663C4.83331 14.6663 1.83331 11.6663 1.83331 7.99967Z" fill="#109CF1"/>
<path fill-rule="evenodd" clip-rule="evenodd" d="M8.49998 4.2002C8.89998 4.2002 9.16665 4.46686 9.16665 4.86686V11.1335C9.16665 11.5335 8.89998 11.8002 8.49998 11.8002C8.09998 11.8002 7.83331 11.5335 7.83331 11.1335V4.86686C7.83331 4.46686 8.09998 4.2002 8.49998 4.2002Z" fill="#109CF1"/>
<path fill-rule="evenodd" clip-rule="evenodd" d="M12.3 7.99967C12.3 8.39967 12.0333 8.66634 11.6333 8.66634H5.36668C4.96668 8.66634 4.70001 8.39967 4.70001 7.99967C4.70001 7.59967 4.96668 7.33301 5.36668 7.33301H11.6333C12.0333 7.33301 12.3 7.59967 12.3 7.99967Z" fill="#109CF1"/>
</svg>
