<svg width="16" height="16" viewBox="0 0 16 16" fill="none" xmlns="http://www.w3.org/2000/svg">
<path fill-rule="evenodd" clip-rule="evenodd" d="M4.00002 4.66683C4.36821 4.66683 4.66669 4.96531 4.66669 5.3335V12.6668C4.66669 13.035 4.96516 13.3335 5.33335 13.3335H10.6667C11.0349 13.3335 11.3334 13.035 11.3334 12.6668V5.3335C11.3334 4.96531 11.6318 4.66683 12 4.66683C12.3682 4.66683 12.6667 4.96531 12.6667 5.3335V12.6668C12.6667 13.7714 11.7713 14.6668 10.6667 14.6668H5.33335C4.22878 14.6668 3.33335 13.7714 3.33335 12.6668V5.3335C3.33335 4.96531 3.63183 4.66683 4.00002 4.66683Z" fill="#109CF1"/>
<path fill-rule="evenodd" clip-rule="evenodd" d="M6.66669 5.3335C7.03488 5.3335 7.33335 5.63197 7.33335 6.00016V11.3335C7.33335 11.7017 7.03488 12.0002 6.66669 12.0002C6.2985 12.0002 6.00002 11.7017 6.00002 11.3335V6.00016C6.00002 5.63197 6.2985 5.3335 6.66669 5.3335Z" fill="#109CF1"/>
<path fill-rule="evenodd" clip-rule="evenodd" d="M9.33335 5.3335C9.70154 5.3335 10 5.63197 10 6.00016V11.3335C10 11.7017 9.70154 12.0002 9.33335 12.0002C8.96516 12.0002 8.66669 11.7017 8.66669 11.3335V6.00016C8.66669 5.63197 8.96516 5.3335 9.33335 5.3335Z" fill="#109CF1"/>
<path d="M2.66669 3.3335C2.66669 2.96531 2.96516 2.66683 3.33335 2.66683H12.6667C13.0349 2.66683 13.3334 2.96531 13.3334 3.3335C13.3334 3.70169 13.0349 4.00016 12.6667 4.00016H3.33335C2.96516 4.00016 2.66669 3.70169 2.66669 3.3335Z" fill="#109CF1"/>
<path d="M5.33335 2.00016C5.33335 1.63197 5.63183 1.3335 6.00002 1.3335H10C10.3682 1.3335 10.6667 1.63197 10.6667 2.00016V2.66683H5.33335V2.00016Z" fill="#109CF1"/>
</svg>
