<svg width="24" height="24" viewBox="0 0 24 24" fill="none" xmlns="http://www.w3.org/2000/svg">
<path fill-rule="evenodd" clip-rule="evenodd" d="M2 8C2 6.34315 3.34315 5 5 5H17C18.6569 5 20 6.34315 20 8V16C20 17.6569 18.6569 19 17 19H5C3.34315 19 2 17.6569 2 16V8ZM5 7C4.44772 7 4 7.44772 4 8V16C4 16.5523 4.44772 17 5 17H17C17.5523 17 18 16.5523 18 16V8C18 7.44772 17.5523 7 17 7H5Z" fill="#2ED47A"/>
<path fill-rule="evenodd" clip-rule="evenodd" d="M16 10C14.8954 10 14 10.8954 14 12C14 13.1046 14.8954 14 16 14H20C21.1046 14 22 13.1046 22 12C22 10.8954 21.1046 10 20 10H16ZM16 13C16.5523 13 17 12.5523 17 12C17 11.4477 16.5523 11 16 11C15.4477 11 15 11.4477 15 12C15 12.5523 15.4477 13 16 13Z" fill="#2ED47A"/>
</svg>
